<svg id="Шар_1" data-name="Шар 1" xmlns="http://www.w3.org/2000/svg" viewBox="0 0 1000 1000"><defs><style>.cls-1{fill:#dfeaf2;}</style></defs><title>moon</title><g id="moon"><path class="cls-1" d="M730.49,732c-178.4-31.45-309.84-191.66-306.28-372.77A370.47,370.47,0,0,1,530.84,105.41c12.4-12.6,2.87-33.89-14.79-32.87C295.21,85.22,114.51,267.17,113,497.93,111.58,716.61,280.48,904,498.07,925.85,650.73,941.18,791.57,874.73,878.76,763c10.9-14-1.23-33.91-18.67-30.85A373.11,373.11,0,0,1,730.49,732Z"/><circle class="cls-1" cx="781" cy="588.03" r="25.99"/><circle class="cls-1" cx="616.93" cy="249.07" r="24"/><circle class="cls-1" cx="88.36" cy="173.86" r="44.25"/><circle class="cls-1" cx="561" cy="479.91" r="18"/><circle class="cls-1" cx="846.9" cy="249.07" r="36"/><circle class="cls-1" cx="176.11" cy="861.57" r="18.89"/></g></svg>