<svg id="Шар_1" data-name="Шар 1" xmlns="http://www.w3.org/2000/svg" viewBox="0 0 1000 1000"><defs><style>.cls-1{fill:#dfeaf2;}.cls-2{fill:none;stroke:#dfeaf2;stroke-linecap:round;stroke-miterlimit:10;stroke-width:50px;}</style></defs><title>moon-mild-rain</title><g id="moon-mild-rain"><path class="cls-1" d="M871.51,410.42a12.46,12.46,0,0,1-8.8-10.44c-15.9-115.5-115-204.46-234.87-204.46a236.67,236.67,0,0,0-186,90.11A12.35,12.35,0,0,1,431,290.44q-5.69-.57-11.53-.58A115.15,115.15,0,0,0,304.31,405h0a12.48,12.48,0,0,1-12.48,12.48H160.72v.16a134.94,134.94,0,0,0,0,269.6v.16H830.11c74.93,0,138.91-57.31,143.6-132.09A141.23,141.23,0,0,0,871.51,410.42Z"/><path class="cls-1" d="M140.31,399.79l.41-.07v-2.23H284.51A135.17,135.17,0,0,1,419.45,269.86c2.09,0,4.19.07,6.29.17a167.53,167.53,0,0,0-.93-19.57,172.65,172.65,0,0,0-95.74-137.11,7.8,7.8,0,0,0-10.66,9.92A150.35,150.35,0,0,1,329,174.53c2.27,73.13-50.26,138.31-122.16,151.82A149.63,149.63,0,0,1,97.7,305.09a7.8,7.8,0,0,0-11.78,8.56A172.21,172.21,0,0,0,140.31,399.79Z"/><circle class="cls-1" cx="468.07" cy="191.76" r="17.07"/><circle class="cls-1" cx="571.74" cy="134.78" r="27.74"/><circle class="cls-1" cx="795.56" cy="142.52" r="15.56"/><circle class="cls-1" cx="158.12" cy="173.64" r="18.12"/><circle class="cls-1" cx="911.5" cy="321.49" r="24.5"/><g id="mild-rain"><g id="rain"><line class="cls-2" x1="211" y1="869.26" x2="282" y2="743.26"/><line class="cls-2" x1="388" y1="835.26" x2="440" y2="743.26"/><line class="cls-2" x1="489" y1="936.26" x2="598" y2="743.26"/><line class="cls-2" x1="716" y1="814.26" x2="756" y2="743.26"/></g></g></g></svg>