<svg id="Шар_1" data-name="Шар 1" xmlns="http://www.w3.org/2000/svg" viewBox="0 0 1000 1000"><defs><style>.cls-1{fill:none;stroke:#dfeaf2;stroke-miterlimit:10;stroke-width:27.78px;}</style></defs><title>cloudness</title><path class="cls-1" d="M862.48,469.46a12.26,12.26,0,0,1-8.66-10.26c-15.64-113.62-113.11-201.12-231-201.12a232.78,232.78,0,0,0-183,88.64,12.14,12.14,0,0,1-10.65,4.73,111.82,111.82,0,0,0-11.34-.57A113.26,113.26,0,0,0,304.56,464.14h0a12.27,12.27,0,0,1-12.27,12.28h-129v.16a132.73,132.73,0,0,0,0,265.18v.16H821.76c73.7,0,136.63-56.37,141.25-129.93A138.92,138.92,0,0,0,862.48,469.46Z"/></svg>