<svg id="Шар_1" data-name="Шар 1" xmlns="http://www.w3.org/2000/svg" viewBox="0 0 1000 1000"><defs><style>.cls-1{fill:#dfeaf2;}</style></defs><title>cloudy</title><path class="cls-1" d="M875.52,468.57a12.71,12.71,0,0,1-9-10.64C850.33,340.18,749.31,249.49,627.11,249.49a241.24,241.24,0,0,0-189.65,91.87,12.58,12.58,0,0,1-11,4.9A117.38,117.38,0,0,0,297.29,463.05h0a12.73,12.73,0,0,1-12.72,12.73H150.9v.16a137.57,137.57,0,0,0,0,274.85V751H833.32c76.38,0,141.6-58.43,146.39-134.66A144,144,0,0,0,875.52,468.57Z"/></svg>