<svg id="Шар_1" data-name="Шар 1" xmlns="http://www.w3.org/2000/svg" viewBox="0 0 1000 1000"><defs><style>.cls-1,.cls-2{fill:none;stroke:#dfeaf2;stroke-linecap:round;stroke-miterlimit:10;}.cls-1{stroke-width:50px;}.cls-2{stroke-width:42.11px;}.cls-3{fill:#dfeaf2;}</style></defs><title>mild-rain</title><g id="mild-rain"><g id="rain"><line class="cls-1" x1="211" y1="869.26" x2="282" y2="743.26"/><line class="cls-1" x1="388" y1="835.26" x2="440" y2="743.26"/><line class="cls-1" x1="489" y1="936.26" x2="598" y2="743.26"/><line class="cls-1" x1="716" y1="814.26" x2="756" y2="743.26"/></g><line class="cls-2" x1="349.22" y1="114.92" x2="350.58" y2="60.51"/><line class="cls-2" x1="153.19" y1="223.63" x2="106.74" y2="195.25"/><line class="cls-2" x1="461.35" y1="147.24" x2="513.49" y2="60.08"/><line class="cls-2" x1="237.24" y1="142.68" x2="197.85" y2="71.39"/><line class="cls-2" x1="121.24" y1="334.49" x2="39.8" y2="332.96"/><path class="cls-3" d="M178.26,400.31H287.7A131.82,131.82,0,0,1,419.45,272.68c3.52,0,7.08.14,10.61.42a256.39,256.39,0,0,1,51.66-48.43,178,178,0,0,0-309.1,157.2A182.44,182.44,0,0,0,178.26,400.31Z"/><path class="cls-3" d="M871.51,409.91a12.46,12.46,0,0,1-8.8-10.44C846.81,284,747.71,195,627.84,195a236.64,236.64,0,0,0-186,90.11A12.35,12.35,0,0,1,431,289.93q-5.69-.57-11.53-.58A115.14,115.14,0,0,0,304.31,404.5h0A12.48,12.48,0,0,1,291.83,417H160.72v.16a134.94,134.94,0,0,0,0,269.6v.16H830.11c74.93,0,138.91-57.31,143.6-132.09A141.23,141.23,0,0,0,871.51,409.91Z"/></g></svg>