<svg id="Шар_1" data-name="Шар 1" xmlns="http://www.w3.org/2000/svg" viewBox="0 0 1000 1000"><defs><style>.cls-1{fill:#dfeaf2;}</style></defs><title>moon-cloud</title><g id="moon-cloud"><path class="cls-1" d="M871.51,536.42a12.45,12.45,0,0,1-8.8-10.44c-15.9-115.5-115-204.46-234.87-204.46a236.67,236.67,0,0,0-186,90.11A12.33,12.33,0,0,1,431,416.44q-5.69-.57-11.53-.57A115.14,115.14,0,0,0,304.31,531h0a12.48,12.48,0,0,1-12.48,12.48H160.72v.16a134.94,134.94,0,0,0,0,269.6v.16H830.11c74.93,0,138.91-57.31,143.6-132.09A141.23,141.23,0,0,0,871.51,536.42Z"/><path class="cls-1" d="M140.31,525.79l.41-.07v-2.23H284.51A135.15,135.15,0,0,1,419.45,395.87c2.09,0,4.19.06,6.29.16a167.26,167.26,0,0,0-.93-19.56,172.65,172.65,0,0,0-95.74-137.12,7.8,7.8,0,0,0-10.66,9.92A150.35,150.35,0,0,1,329,300.53c2.27,73.13-50.26,138.31-122.16,151.82A149.68,149.68,0,0,1,97.7,431.1a7.8,7.8,0,0,0-11.78,8.55A172.21,172.21,0,0,0,140.31,525.79Z"/><circle class="cls-1" cx="468.07" cy="317.76" r="17.07"/><circle class="cls-1" cx="571.74" cy="260.78" r="27.74"/><circle class="cls-1" cx="795.56" cy="268.52" r="15.56"/><circle class="cls-1" cx="158.12" cy="299.64" r="18.12"/><circle class="cls-1" cx="911.5" cy="447.5" r="24.5"/></g></svg>