<svg id="Шар_1" data-name="Шар 1" xmlns="http://www.w3.org/2000/svg" viewBox="0 0 1000 1000"><defs><style>.cls-1{fill:#dfeaf2;}</style></defs><title>pressure</title><path class="cls-1" d="M421.81,384.74c0-62.57,0-121.27,0-180,0-8.69-2.17-18.46,1.08-25.76,3.32-7.47,12-17.21,18.46-17.28,6.11-.07,15.58,10.14,17.77,17.54,3.16,10.7,1.22,22.94,1.23,34.52.05,56-.11,112,.08,168,.08,23.29,2.79,48-43,37.62l85,92.21,77.4-87.51c-44.25,3.06-40.23-24.54-40-50.73.46-59.86.06-119.72.18-179.59,0-14.42-1.87-32.51,18.67-32.79,20.11-.26,19.79,17,19.78,32,0,62.58,0,125.16,0,191.76,15.71,0,29-.81,42.05.19,22,1.68,29.63,16.38,15.66,32.86C598,462.69,558.56,506.39,519.66,550.57c-11.56,13.13-23.16,12-34.41-.15C445.36,507.12,405.3,464,366.12,420.05c-4.93-5.53-9.21-17.85-6.37-22.58,3.88-6.48,14.5-10.71,22.89-12.24C393.75,383.21,405.5,384.74,421.81,384.74Z"/><path class="cls-1" d="M497.25,838.59q-202.74,0-405.48,0c-8.66,0-18.33,1.7-25.7-1.55-6.51-2.86-14.38-11.49-14.43-17.64S59.52,804.7,66,801.85c7.39-3.26,17-1.68,25.71-1.68q408.38-.07,816.74,0a25.32,25.32,0,0,1,2.89,0c15,1.88,37.64-6.07,37.62,19.15,0,24.9-22.28,19.07-37.54,19.11Q704.34,838.9,497.25,838.59Z"/><path class="cls-1" d="M508.24,625.43c-159.89.42-304.7-50.87-441-130-8-4.62-16.32-21.88-13.54-29,6.6-16.86,20.92-10.73,33.71-3.32,94.95,55,195.24,95.95,303.94,114.44,180.37,30.7,346-10.41,502-101.5,15.41-9,36.34-38.41,52.76-9.39,15.39,27.21-19.1,33.1-34.89,42.51C787.22,583,654,626.42,508.24,625.43Z"/><path class="cls-1" d="M511,695.74c-155.74.57-297-26.4-434.12-76.31-1.8-.66-3.76-.9-5.55-1.58C57.72,612.71,44,604.58,52.85,589c3.64-6.39,21.55-9.31,31.22-6.87,73.7,18.58,146.07,43.62,220.55,57.72,203.78,38.56,403.09,15,597.93-53.46,14.9-5.24,35.59-21.31,45,2.61,10.39,26.43-17.06,27.85-32.61,33.38C781.26,670,643.69,696.3,511,695.74Z"/><path class="cls-1" d="M948.07,702.48c-3.44-21.22-21-16.41-34.73-13.52q-205.76,43.29-413.76,43.47T85.83,689c-13.76-2.89-31.29-7.7-34.73,13.52C47.78,723,65.32,724.75,79.4,727.55,218,755,357.67,771.29,499.58,774.89,641.5,771.29,781.2,755,919.76,727.55,933.85,724.75,951.38,723,948.07,702.48Z"/></svg>