<svg id="Шар_1" data-name="Шар 1" xmlns="http://www.w3.org/2000/svg" viewBox="0 0 1000 1000"><defs><style>.cls-1{fill:none;stroke:#dfeaf2;stroke-linecap:round;stroke-miterlimit:10;stroke-width:67.89px;}</style></defs><title>snow</title><g id="snow"><line class="cls-1" x1="500" y1="500" x2="500" y2="70.62"/><polyline class="cls-1" points="391.17 171.99 499.93 280.75 608.83 171.85"/><line class="cls-1" x1="500" y1="500" x2="128.14" y2="285.31"/><polyline class="cls-1" points="161.52 430.24 310.09 390.44 270.23 241.67"/><line class="cls-1" x1="500" y1="500" x2="128.14" y2="714.69"/><polyline class="cls-1" points="270.35 758.26 310.16 609.69 161.4 569.83"/><line class="cls-1" x1="500" y1="500" x2="500" y2="929.38"/><polyline class="cls-1" points="608.83 828.01 500.07 719.25 391.17 828.15"/><line class="cls-1" x1="500" y1="500" x2="871.86" y2="714.69"/><polyline class="cls-1" points="838.48 569.76 689.91 609.57 729.77 758.33"/><line class="cls-1" x1="500" y1="500" x2="871.86" y2="285.31"/><polyline class="cls-1" points="729.65 241.74 689.84 390.31 838.61 430.17"/></g></svg>