<svg id="Шар_1" data-name="Шар 1" xmlns="http://www.w3.org/2000/svg" viewBox="0 0 1000 1000"><defs><style>.cls-1{fill:#dfeaf2;}</style></defs><title>uv</title><path class="cls-1" d="M715.23,495.57c-6.53,29.6-11.31,59.76-20.62,88.45-2.93,9-19.17,20.9-27.33,19.55-19.18-3.2-12.22-19.06-7.66-31.8,37.48-104.6-.43-213.88-93.89-270.86-89.89-54.79-205.87-37.26-279.08,42.18-62.95,68.3-75.76,170.49-31.7,252.65a225,225,0,0,0,232.6,116.69c2.82-.42,6.09-2.53,8.28-1.66,10.17,4,20,8.83,30,13.36-7.59,7.8-15.11,22.2-22.79,22.28-41.45.44-84.85,4.5-124.09-5.88C248.93,706.16,170.59,573.81,196.2,441c25.44-131.87,150.43-222.3,286.86-207.53C612.59,247.46,713.33,362.69,715.23,495.57Z"/><path class="cls-1" d="M772.4,748.21c0,28.61.69,57.24-.16,85.83-1.63,55-42.85,96.14-96.16,97-54.53.87-100.58-39.74-102.47-94.37-2.05-59.07-1.33-118.28.33-177.36.25-8.81,12.23-17.3,18.79-25.93,6.38,8.84,18,17.52,18.28,26.55,1.74,55.27.74,110.62,1,165.93.19,39.83,25.61,67.55,61.5,67.8s60.56-27.15,60.79-68c.31-53.41,0-106.82.24-160.23.07-14.09-2.1-31.51,19-31.58,21.27-.07,18.78,17.21,18.84,31.4C772.49,692.89,772.41,720.55,772.4,748.21Z"/><path class="cls-1" d="M889.38,822.34q18.74-73.83,37.45-147.65c2.33-9.19,2.24-20,7.32-27.22,5.57-7.91,15.84-12.51,24.05-18.56,4,9.37,12.91,19.82,11.14,27.92-11.61,52.87-25.58,105.23-38.69,157.77-7.59,30.4-13.81,61.23-23.24,91-3.07,9.72-14.31,16.87-21.81,25.19-6.75-8-17.25-15-19.66-24.14C844.38,825,823.71,743,804.48,660.63c-2.11-9,3.79-26.68,10.71-29.79,16.84-7.55,22.19,7.78,25.61,21.33q21.41,84.89,42.68,169.8Z"/><path class="cls-1" d="M660.75,296.92c-2.29-13.24-9.56-28.65-5.07-33.8,22.44-25.7,47.54-49.17,72.87-72.14,3.55-3.22,16.54-2,19.77,1.82,4.45,5.23,7.79,18.51,4.63,21.95-23.74,25.88-49.11,50.27-74.25,74.84C676.24,292,671.91,292.48,660.75,296.92Z"/><path class="cls-1" d="M256.08,706.59c-2.35,5.12-3.12,9.31-5.6,11.85-23.2,23.81-46.06,48-70.68,70.31-4.51,4.08-20,3-24.15-1.47s-4.33-19.45,0-24.3a906.14,906.14,0,0,1,66.21-66.73c5-4.59,15.91-5.36,23.26-3.84C249.68,693.37,252.69,701.92,256.08,706.59Z"/><path class="cls-1" d="M166.66,185.88c5.73,2.9,10.72,4.14,13.91,7.24,23.23,22.59,46.81,44.91,68.44,69,4.2,4.68,3.63,20-.74,24.26s-19.59,4.79-24.37.55c-24.18-21.49-47-44.63-69.07-68.32-4-4.28-4.57-14.51-2.62-20.71C153.77,192.88,161.54,189.85,166.66,185.88Z"/><path class="cls-1" d="M469.4,138.83c0,16.2,1.73,32.67-.77,48.47-1.08,6.86-10.81,12.37-16.6,18.49-5.92-6-16.61-11.82-16.94-18.15A976.79,976.79,0,0,1,435,87.71c.33-6.51,10.8-12.51,16.59-18.75,5.92,6.14,15.94,11.68,16.95,18.55C471.05,104.29,469.38,121.68,469.4,138.83Z"/><path class="cls-1" d="M803.72,507.74c-16.22,0-32.69,1.71-48.53-.74-7.27-1.12-13.29-10.34-19.87-15.89,6.79-6.24,13.28-17.43,20.43-17.86a868.24,868.24,0,0,1,97.2-.17c6.87.35,13.25,10.2,19.86,15.67-6.81,6.32-12.89,16.72-20.6,18.12C836.52,509.72,819.94,507.72,803.72,507.74Z"/><path class="cls-1" d="M469.5,845c0,15.25,2.12,30.92-.83,45.58-1.53,7.64-11.95,13.5-18.35,20.16-5.43-6.6-15.21-13-15.56-19.84a866.81,866.81,0,0,1,.19-97.12c.43-7,11.88-13.27,18.26-19.87,5.42,6.54,14.54,12.57,15.53,19.73C471.05,810.48,469.48,827.85,469.5,845Z"/><path class="cls-1" d="M98.54,507.77c-15.26,0-30.87,1.9-45.65-.75-8.19-1.47-15-10.55-22.46-16.2,6.93-6.19,13.56-17.29,20.83-17.73a868.25,868.25,0,0,1,97.2-.06c6.67.35,12.82,10.42,19.21,16-6.83,6.21-12.94,16.42-20.63,17.79-15.72,2.8-32.29.84-48.5.84Z"/></svg>