<svg id="Шар_1" data-name="Шар 1" xmlns="http://www.w3.org/2000/svg" viewBox="0 0 1000 1000"><defs><style>.cls-1{fill:#dfeaf2;}</style></defs><title>wind</title><path class="cls-1" d="M32.13,496.62c8.22-11.1,19.77-12.05,32.49-12q364.41.32,728.81.12c69.72,0,120.48-42.06,132-108.73,11-63.72-38.91-131.78-103.19-140.68-72.55-10-139,39.08-145.37,107.58-.52,5.49-.66,11-1.41,16.49-1.73,12.76-8.66,20.49-22.07,19.43-13.61-1.07-18.58-10.24-18.38-22.91.81-50.14,20.37-92.05,58.61-123.87,100.19-83.38,248-28.74,271.39,99.66.42,2.28,1.88,4.36,2.86,6.53v40.53c-6.36,19-10.2,39.36-19.54,56.77-31.7,59.05-82.83,89.59-149.42,89.8Q430.24,526.46,61.58,525c-9.83,0-19.63-8.9-29.45-13.66Z"/><path class="cls-1" d="M421.28,566.83c67.5,0,135-.49,202.51.18,56.5.56,101.71,35.84,116.73,89.32C754.6,706.47,733.59,760.6,689,789.17c-76.43,48.9-180.82-4.27-185.23-94.34-.8-16.42,7.07-28.11,20-27.63,15,.56,20,9.94,21.33,24.43,4.13,46.71,40.53,77.87,85.7,74.7,42.38-3,74.16-38.75,72.74-81.9-1.43-43.59-36.21-76.54-82.51-76.65-132.55-.33-265.1-.12-397.65-.13-5.52,0-12.25,1.85-16.3-.63-7-4.25-16.57-10.83-17.16-17.18-.63-6.69,6.84-15.58,13-20.93,3.72-3.23,11.69-2,17.75-2Q320.95,566.71,421.28,566.83Z"/><path class="cls-1" d="M296.67,452.52H129.19c-13.52,0-23.18-5.66-23.42-20-.25-15.48,9.85-21.16,24.19-20.93,4.91.08,9.82,0,14.73,0,104.29,0,208.58.23,312.88-.12,40.58-.14,75-30.46,79.06-68.2,4.49-41.47-19.66-77.16-59.32-87.64-46.8-12.36-93.32,21.12-98.45,70.86-1.92,18.64-10.31,28.76-23,26.16-17.14-3.51-19.21-16.59-17.86-31.22,6-65,62.32-112.19,129.65-108.67C530.55,216,579.33,271,577.92,336.93c-1.36,63.55-54.45,115.19-119.28,115.54C404.65,452.75,350.66,452.53,296.67,452.52Z"/></svg>