<svg id="Шар_1" data-name="Шар 1" xmlns="http://www.w3.org/2000/svg" viewBox="0 0 1000 1000"><defs><style>.cls-1{fill:none;stroke:#dfeaf2;stroke-linecap:round;stroke-miterlimit:10;stroke-width:42.11px;}.cls-2{fill:#dfeaf2;}</style></defs><title>cloudy-sunny</title><g id="sun-cloud"><line class="cls-1" x1="349.22" y1="241.43" x2="350.58" y2="187.02"/><line class="cls-1" x1="153.19" y1="350.14" x2="106.74" y2="321.76"/><line class="cls-1" x1="461.35" y1="273.75" x2="513.49" y2="186.59"/><line class="cls-1" x1="237.24" y1="269.19" x2="197.85" y2="197.9"/><line class="cls-1" x1="121.24" y1="461" x2="39.8" y2="459.47"/><path class="cls-2" d="M178.26,526.82H287.7A131.82,131.82,0,0,1,419.45,399.19c3.52,0,7.08.14,10.61.43a256.44,256.44,0,0,1,51.66-48.44,178,178,0,0,0-309.1,157.2A182.44,182.44,0,0,0,178.26,526.82Z"/><path class="cls-2" d="M871.51,536.42a12.45,12.45,0,0,1-8.8-10.44c-15.9-115.5-115-204.46-234.87-204.46a236.67,236.67,0,0,0-186,90.11A12.33,12.33,0,0,1,431,416.44q-5.69-.57-11.53-.57A115.14,115.14,0,0,0,304.31,531h0a12.48,12.48,0,0,1-12.48,12.48H160.72v.16a134.94,134.94,0,0,0,0,269.6v.16H830.11c74.93,0,138.91-57.31,143.6-132.09A141.23,141.23,0,0,0,871.51,536.42Z"/></g></svg>