<svg id="Шар_1" data-name="Шар 1" xmlns="http://www.w3.org/2000/svg" viewBox="0 0 1000 1000"><defs><style>.cls-1{fill:#dfeaf2;}.cls-2{fill:none;stroke:#dfeaf2;stroke-linecap:round;stroke-miterlimit:10;stroke-width:50px;}</style></defs><title>rain</title><g id="rain"><path id="cloud" class="cls-1" d="M875.67,352.35a12.71,12.71,0,0,1-9-10.64C850.49,224,749.47,133.27,627.27,133.27a241.24,241.24,0,0,0-189.65,91.87,12.59,12.59,0,0,1-11,4.9A117.39,117.39,0,0,0,297.44,346.83h0a12.72,12.72,0,0,1-12.72,12.73H151.06v.16a137.57,137.57,0,0,0,0,274.85v.16H833.47c76.39,0,141.61-58.43,146.4-134.66A144,144,0,0,0,875.67,352.35Z"/><line class="cls-2" x1="211" y1="826" x2="282" y2="700"/><line class="cls-2" x1="388" y1="792" x2="440" y2="700"/><line class="cls-2" x1="489" y1="893" x2="598" y2="700"/><line class="cls-2" x1="716" y1="771" x2="756" y2="700"/></g></svg>